<svg xmlns="http://www.w3.org/2000/svg" width="576" height="992" viewBox="0 0 576 992">
  <g id="Rectangle_Copy" data-name="Rectangle Copy" fill="none" opacity="0.2">
    <path d="M288,0C447.058,0,576,128.942,576,288V704c0,159.058-128.942,288-288,288S0,863.058,0,704V288C0,128.942,128.942,0,288,0Z" stroke="none"/>
    <path d="M 288 87 C 177.1681213378906 87 87 177.1681518554688 87 288 L 87 704 C 87 814.8319091796875 177.1681213378906 905 288 905 C 398.8318786621094 905 489 814.8319091796875 489 704 L 489 288 C 489 177.1681518554688 398.8318786621094 87 288 87 M 288 0 C 447.0579223632813 0 576 128.9420776367188 576 288 L 576 704 C 576 863.0579223632813 447.0579223632813 992 288 992 C 128.9420776367188 992 0 863.0579223632813 0 704 L 0 288 C 0 128.9420776367188 128.9420776367188 0 288 0 Z" stroke="none" fill="#707070"/>
  </g>
</svg>
