<svg id="gilbarco" xmlns="http://www.w3.org/2000/svg" width="204.649" height="58.269" viewBox="0 0 204.649 58.269">
  <path id="Path" d="M0,0S12.382,2.594,17.774,13.389A30.608,30.608,0,0,1,19.58,34.9L10.651,29.3s2.878-6.141,2.125-12.15C11.154,14.459,8.007,11.325.16,10.387L.244,3.94c3.582,1.376,9.309,6.819,12.3,11.86-.09-.413-.2-.826-.334-1.228C9.553,6.534,7.159,3.98,0,0Z" transform="translate(24.899)" fill="#6db33f"/>
  <path id="Path-2" data-name="Path" d="M39.838,5.17S31.355,14.718,19.359,14.1A29.663,29.663,0,0,1,0,5.028L9.341,0s3.81,5.542,9.351,7.875c3.124-.091,7.4-1.3,12.178-7.694l5.471,3.255c-2.993,2.454-10.558,4.777-16.4,4.9.4.126.807.227,1.221.312,8.226,1.648,11.607.816,18.673-3.477Z" transform="translate(3.32 32.408)" fill="#1b4298"/>
  <path id="Path-3" data-name="Path" d="M1.253,34.07S-2.847,22.088,3.785,12.1,21.579,0,21.579,0l-.3,10.485s-6.826.5-11.685,4.109c-1.5,2.721-2.614,6.99.594,14.244L4.554,31.924c-.646-3.775,1.158-11.408,4.008-16.476a12.386,12.386,0,0,0-.892.894C2.027,22.582,1.028,25.912,1.253,34.07Z" fill="#ef4035"/>
  <path id="Shape" d="M98.689,16.619h-.01a8.353,8.353,0,0,1-8.366-8.314,8.231,8.231,0,0,1,2.462-5.877A8.365,8.365,0,0,1,98.694,0h.01a8.356,8.356,0,0,1,8.361,8.325,8.222,8.222,0,0,1-2.459,5.866A8.356,8.356,0,0,1,98.689,16.619Zm.02-13.443c-2.422,0-4.392,2.3-4.392,5.129s1.97,5.129,4.392,5.129,4.393-2.3,4.393-5.129S101.131,3.176,98.708,3.176ZM9.816,16.134H9.795A11.794,11.794,0,0,1,2.87,14.252,6.917,6.917,0,0,1,0,8.305,7.015,7.015,0,0,1,3.391,2.363,11.785,11.785,0,0,1,9.558.486c3.049,0,3.749.292,4.56.63.177.074.36.15.575.227V4.914a7.283,7.283,0,0,0-4.9-1.583l-.01.005a6.479,6.479,0,0,0-3.7,1.423A4.6,4.6,0,0,0,4.074,8.31a4.854,4.854,0,0,0,2.6,4.172,8.027,8.027,0,0,0,3.832,1.132c.143.007.288.011.431.011a8.265,8.265,0,0,0,1.084-.071V10.1H8.255l2.126-2.48h5.306l-.045,6.567-2.787,1.562A12.187,12.187,0,0,1,9.816,16.134Zm75.866,0h-.01c-5.092,0-9.235-3.512-9.235-7.829S80.58.486,85.672.486h.023a10.61,10.61,0,0,1,3.724.671V4.733a5.575,5.575,0,0,0-3.7-1.4h-.044a5.2,5.2,0,0,0-5.387,4.974,4.9,4.9,0,0,0,2.454,4.172,7.257,7.257,0,0,0,3.61,1.152c.162.013.326.019.489.019a6.265,6.265,0,0,0,3.711-1.206l.025.115-2.02,3.19A10.863,10.863,0,0,1,85.682,16.134Zm-43.568-.085H35.182V.927H42.72c.081-.005.164-.008.246-.008a3.73,3.73,0,0,1,2.647,1.09,3.767,3.767,0,0,1,1.01,2.679,3.754,3.754,0,0,1-.743,2.3,3.2,3.2,0,0,1-1.4,1,3.534,3.534,0,0,1,2.065,1.343,4.055,4.055,0,0,1,.661,2.394,4.673,4.673,0,0,1-.469,2.114,3.3,3.3,0,0,1-2.818,2A15.978,15.978,0,0,1,42.114,16.049Zm-2.842-3.271H41.3a1.929,1.929,0,0,0,.2.011,1.9,1.9,0,0,0,1.268-.482,1.819,1.819,0,0,0,.424-1.272,1.64,1.64,0,0,0-.418-1.187,1.981,1.981,0,0,0-1.48-.456h-2.02Zm-.025-8.8V8.9l1.747-2.054a1.809,1.809,0,0,0,1.313-.375,1.485,1.485,0,0,0,.368-1.087,1.4,1.4,0,0,0-.368-1.031,1.787,1.787,0,0,0-1.283-.371ZM51.273,16.034H47.138L53.146.927h4.317l6.008,15.105H59.225l-.869-3.276H52.126l-.853,3.276Zm3.974-11.19-2.02,5.43h4.039ZM67.43,16.033H63.774V.927h7.261c.1,0,.208-.007.311-.007a7,7,0,0,1,2.269.377,2.97,2.97,0,0,1,1.445,1.378A5.069,5.069,0,0,1,75.6,5.114a5.142,5.142,0,0,1-.419,2.169,1.874,1.874,0,0,1-.8.855c-.113.076-.229.155-.354.252a3.75,3.75,0,0,1-1.277.591,3.429,3.429,0,0,1,.949.561,6.841,6.841,0,0,1,.581.792l4.014,5.7H73.686L70.5,11.41a4.56,4.56,0,0,1-.383-.7,1.405,1.405,0,0,0-.279-.464,1.294,1.294,0,0,0-.89-.351H67.43v6.135Zm.005-12.082v5.36L69.51,7.048h.652a4.54,4.54,0,0,0,.965-.206,1.013,1.013,0,0,0,.59-.5,1.648,1.648,0,0,0,.227-.871,1.6,1.6,0,0,0-.363-1.128,1.825,1.825,0,0,0-1.359-.391ZM21.2,16.033h-3.6V.927h3.6V16.032Zm11.174-.01h-8.71V.927H27.4v12.2h7.326l-2.352,2.895Z" transform="translate(53.947 3.324)" fill="#231f20"/>
  <path id="Shape-2" data-name="Shape" d="M130.751,16.619h-.008a8.344,8.344,0,0,1-8.351-8.314,8.238,8.238,0,0,1,2.457-5.877A8.337,8.337,0,0,1,130.755,0h.01a8.31,8.31,0,1,1-.015,16.619Zm0-13.443c-2.42,0-4.389,2.3-4.389,5.129s1.969,5.129,4.389,5.129,4.384-2.3,4.384-5.129S133.168,3.176,130.751,3.176Zm-18.08,13.443h-.008a8.345,8.345,0,0,1-8.352-8.314,8.236,8.236,0,0,1,2.458-5.877A8.337,8.337,0,0,1,112.676,0h.01a8.31,8.31,0,1,1-.015,16.619Zm0-13.443c-2.417,0-4.384,2.3-4.384,5.129s1.967,5.129,4.384,5.129,4.384-2.3,4.384-5.129S115.088,3.176,112.671,3.176ZM9.73,16.008H6.1L0,.6H4.072L7.916,11.119,11.761.6h4.072L9.73,16.008Zm137.105-.095H143.2V3.211h-4.837V.686h12.688v2.5h-4.217V15.913Zm-51.659-.055H91.523V.751h7.25c.1,0,.206-.007.309-.007a6.974,6.974,0,0,1,2.266.378A2.946,2.946,0,0,1,102.785,2.5a5.079,5.079,0,0,1,.544,2.444,5.15,5.15,0,0,1-.413,2.169,1.9,1.9,0,0,1-.795.852c-.113.077-.229.156-.355.255a3.782,3.782,0,0,1-1.28.591,3.517,3.517,0,0,1,.952.561,7.545,7.545,0,0,1,.58.791l4,5.694-4.6,0-3.18-4.618a4.592,4.592,0,0,1-.382-.7,1.41,1.41,0,0,0-.278-.464,1.283,1.283,0,0,0-.884-.351H95.176v6.131ZM95.2,3.8h0V9.119l-.015.017H95.2V9.119L97.272,6.9h.645a4.575,4.575,0,0,0,.962-.205.977.977,0,0,0,.59-.5A1.62,1.62,0,0,0,99.7,5.32a1.6,1.6,0,0,0-.364-1.128A1.834,1.834,0,0,0,97.982,3.8ZM71.432,15.859H67.784V.751H75.03c.1,0,.206-.007.309-.007a6.974,6.974,0,0,1,2.266.378A2.927,2.927,0,0,1,79.041,2.5a5,5,0,0,1,.55,2.444,5.155,5.155,0,0,1-.419,2.169,1.876,1.876,0,0,1-.8.855c-.112.076-.228.155-.353.252a3.755,3.755,0,0,1-1.274.591,3.508,3.508,0,0,1,.947.561,7.544,7.544,0,0,1,.58.791l4,5.694-4.6,0L74.5,11.24a4.707,4.707,0,0,1-.386-.7,1.454,1.454,0,0,0-.274-.458,1.292,1.292,0,0,0-.888-.351H71.432v6.131ZM71.438,3.8h0V9.136L73.528,6.9h.65a4.631,4.631,0,0,0,.963-.205,1,1,0,0,0,.59-.5,1.674,1.674,0,0,0,.227-.871,1.6,1.6,0,0,0-.363-1.128A1.825,1.825,0,0,0,74.239,3.8ZM48.268,15.858H40.6V.751h8.848c.775,0,2.126.909,3.213,2.16A8.492,8.492,0,0,1,54.844,8.13a7.406,7.406,0,0,1-2.233,5.359A7.5,7.5,0,0,1,48.268,15.858Zm-3.946-12.4v9.517h3.155a5.327,5.327,0,0,0,3.381-4.833c0-2.354-2.21-4.178-3.7-4.669V3.461Zm20.232,12.4H55.872V.751h9.735v2.71H59.6V6.6h5.186v2.94H59.6v3.426H66.9l-2.348,2.894Zm-27.211,0h-8.7V.751h9.735v2.71H32.37V6.6h5.18v2.94H32.37v3.426h7.321l-2.348,2.894Zm-11.761,0h-8.7V.751h9.735v2.71H20.609V6.6h5.18v2.94h-5.18v3.426h7.307l-2.333,2.894Zm62.68-6.01H81.656l1.688-2.239h6.61L88.262,9.847Z" transform="translate(53.117 25.761)" fill="#231f20"/>
  <path id="Path-4" data-name="Path" d="M0,0H151.053V.831H0Z" transform="translate(53.117 22.437)" fill="#231f20"/>
  <path id="Shape-3" data-name="Shape" d="M4.642,2.493V.408L3.871,2.493H3.559L2.772.374V2.493H2.455V0h.528l.624,1.767.126.368.143-.4L4.51,0h.47V2.493Zm-3.771,0V.3H0V0H2.112V.3H1.22v2.2Z" transform="translate(37.348 44.042)" fill="#231f20"/>
  <g id="Group" transform="translate(117.024 47.366)">
    <g id="A">
      <path id="A-2" data-name="A" d="M5.233,7.841l-.6-2.012H2.384L1.826,7.841H0L2.384,0H4.71L7.151,7.841Z" transform="translate(0.209 0.758)"/>
      <path id="A-3" data-name="A" d="M5.233,7.841l-.6-2.012H2.384L1.826,7.841H0L2.384,0H4.71L7.151,7.841Z" transform="translate(0.209 0.758)" fill="#231f20"/>
    </g>
    <g id="pp">
      <path id="pp-2" data-name="pp" d="M7,8.121V2.036C7,1.291,6.978.663,6.954.128H8.489l.082.791h.023A2.209,2.209,0,0,1,10.49,0c1.244,0,2.361,1.082,2.361,2.9,0,2.071-1.314,3.047-2.582,3.047a1.769,1.769,0,0,1-1.477-.651H8.768V8.121Zm-6.953,0V2.036C.047,1.291.023.663,0,.128H1.535l.081.791H1.64A2.21,2.21,0,0,1,3.535,0C4.78,0,5.9,1.082,5.9,2.9c0,2.071-1.314,3.047-2.581,3.047a1.766,1.766,0,0,1-1.477-.651H1.814V8.121Z" transform="translate(7.746 2.782)"/>
      <path id="pp-3" data-name="pp" d="M7,8.121V2.036C7,1.291,6.978.663,6.954.128H8.489l.082.791h.023A2.209,2.209,0,0,1,10.49,0c1.244,0,2.361,1.082,2.361,2.9,0,2.071-1.314,3.047-2.582,3.047a1.769,1.769,0,0,1-1.477-.651H8.768V8.121Zm-6.953,0V2.036C.047,1.291.023.663,0,.128H1.535l.081.791H1.64A2.21,2.21,0,0,1,3.535,0C4.78,0,5.9,1.082,5.9,2.9c0,2.071-1.314,3.047-2.581,3.047a1.766,1.766,0,0,1-1.477-.651H1.814V8.121Z" transform="translate(7.746 2.782)" fill="#231f20"/>
    </g>
    <g id="r">
      <path id="r-2" data-name="r" d="M1.814,5.829V2.943a2.086,2.086,0,0,1,.035-.4,1.136,1.136,0,0,1,1.209-.9,2.641,2.641,0,0,1,.477.047V.035A1.76,1.76,0,0,0,3.163,0,1.657,1.657,0,0,0,1.628,1.187H1.582L1.512.14H0C.035.628.047,1.175.047,2.013V5.829Z" transform="translate(20.978 2.77)"/>
      <path id="r-3" data-name="r" d="M1.814,5.829V2.943a2.086,2.086,0,0,1,.035-.4,1.136,1.136,0,0,1,1.209-.9,2.641,2.641,0,0,1,.477.047V.035A1.76,1.76,0,0,0,3.163,0,1.657,1.657,0,0,0,1.628,1.187H1.582L1.512.14H0C.035.628.047,1.175.047,2.013V5.829Z" transform="translate(20.978 2.77)" fill="#231f20"/>
    </g>
    <g id="o">
      <path id="o-2" data-name="o" d="M0,3.025A2.846,2.846,0,0,1,3.046,0a2.766,2.766,0,0,1,2.9,2.921,2.854,2.854,0,0,1-3,3.036A2.786,2.786,0,0,1,0,3.025Z" transform="translate(24.385 2.77)"/>
      <path id="o-3" data-name="o" d="M0,3.025A2.846,2.846,0,0,1,3.046,0a2.766,2.766,0,0,1,2.9,2.921,2.854,2.854,0,0,1-3,3.036A2.786,2.786,0,0,1,0,3.025Z" transform="translate(24.385 2.77)" fill="#231f20"/>
    </g>
    <g id="v">
      <path id="v-2" data-name="v" d="M3.838,5.689,5.954,0H4.093L3.361,2.641c-.128.489-.221.919-.314,1.384H3.012c-.093-.454-.186-.9-.326-1.384L1.919,0H0L2.07,5.689Z" transform="translate(30.411 2.91)"/>
      <path id="v-3" data-name="v" d="M3.838,5.689,5.954,0H4.093L3.361,2.641c-.128.489-.221.919-.314,1.384H3.012c-.093-.454-.186-.9-.326-1.384L1.919,0H0L2.07,5.689Z" transform="translate(30.411 2.91)" fill="#231f20"/>
    </g>
    <g id="ed">
      <path id="ed-2" data-name="ed" d="M6.14,5.468C6.128,3.549,7.326,2.432,8.687,2.432a1.746,1.746,0,0,1,1.5.64h.023V0h1.768V6.562c0,.639.023,1.314.046,1.7h-1.57l-.069-.826H10.35a1.986,1.986,0,0,1-1.779.954C7.222,8.388,6.14,7.236,6.14,5.468ZM0,5.479A2.849,2.849,0,0,1,2.873,2.444c1.837,0,2.534,1.431,2.534,2.839a4.192,4.192,0,0,1-.058.7H1.687c.046.734.778,1.082,1.6,1.082a4.681,4.681,0,0,0,1.57-.244l.232,1.2a5.364,5.364,0,0,1-2.058.361A2.73,2.73,0,0,1,0,5.479Z" transform="translate(36.166 0.339)"/>
      <path id="ed-3" data-name="ed" d="M6.14,5.468C6.128,3.549,7.326,2.432,8.687,2.432a1.746,1.746,0,0,1,1.5.64h.023V0h1.768V6.562c0,.639.023,1.314.046,1.7h-1.57l-.069-.826H10.35a1.986,1.986,0,0,1-1.779.954C7.222,8.388,6.14,7.236,6.14,5.468ZM0,5.479A2.849,2.849,0,0,1,2.873,2.444c1.837,0,2.534,1.431,2.534,2.839a4.192,4.192,0,0,1-.058.7H1.687c.046.734.778,1.082,1.6,1.082a4.681,4.681,0,0,0,1.57-.244l.232,1.2a5.364,5.364,0,0,1-2.058.361A2.73,2.73,0,0,1,0,5.479Z" transform="translate(36.166 0.339)" fill="#231f20"/>
    </g>
    <g id="P">
      <path id="P-2" data-name="P" d="M0,7.9V.163A14.542,14.542,0,0,1,2.4,0,3.759,3.759,0,0,1,4.791.628a2.258,2.258,0,0,1,.838,1.815A2.447,2.447,0,0,1,4.908,4.3a3.691,3.691,0,0,1-2.547.826,3.028,3.028,0,0,1-.6-.047V7.9Z" transform="translate(51.399 0.7)"/>
      <path id="P-3" data-name="P" d="M0,7.9V.163A14.542,14.542,0,0,1,2.4,0,3.759,3.759,0,0,1,4.791.628a2.258,2.258,0,0,1,.838,1.815A2.447,2.447,0,0,1,4.908,4.3a3.691,3.691,0,0,1-2.547.826,3.028,3.028,0,0,1-.6-.047V7.9Z" transform="translate(51.399 0.7)" fill="#231f20"/>
    </g>
    <g id="a-4" data-name="a">
      <path id="a-5" data-name="a" d="M0,4.211C0,2.734,1.326,2.036,3.337,2.036V1.967c0-.314-.163-.745-1.035-.745a3.193,3.193,0,0,0-1.57.431L.407.512A4.665,4.665,0,0,1,2.616,0,2.207,2.207,0,0,1,5.1,2.466v1.99A7.332,7.332,0,0,0,5.2,5.828H3.605L3.5,5.259H3.465a2.046,2.046,0,0,1-1.627.7A1.743,1.743,0,0,1,0,4.211Z" transform="translate(56.854 2.77)"/>
      <path id="a-6" data-name="a" d="M0,4.211C0,2.734,1.326,2.036,3.337,2.036V1.967c0-.314-.163-.745-1.035-.745a3.193,3.193,0,0,0-1.57.431L.407.512A4.665,4.665,0,0,1,2.616,0,2.207,2.207,0,0,1,5.1,2.466v1.99A7.332,7.332,0,0,0,5.2,5.828H3.605L3.5,5.259H3.465a2.046,2.046,0,0,1-1.627.7A1.743,1.743,0,0,1,0,4.211Z" transform="translate(56.854 2.77)" fill="#231f20"/>
    </g>
    <g id="r-4" data-name="r">
      <path id="r-5" data-name="r" d="M1.814,5.829V2.943a2.086,2.086,0,0,1,.035-.4,1.136,1.136,0,0,1,1.209-.9,2.641,2.641,0,0,1,.477.047V.035A1.76,1.76,0,0,0,3.163,0,1.657,1.657,0,0,0,1.628,1.187H1.582L1.512.14H0C.035.628.047,1.175.047,2.013V5.829Z" transform="translate(62.787 2.77)"/>
      <path id="r-6" data-name="r" d="M1.814,5.829V2.943a2.086,2.086,0,0,1,.035-.4,1.136,1.136,0,0,1,1.209-.9,2.641,2.641,0,0,1,.477.047V.035A1.76,1.76,0,0,0,3.163,0,1.657,1.657,0,0,0,1.628,1.187H1.582L1.512.14H0C.035.628.047,1.175.047,2.013V5.829Z" transform="translate(62.787 2.77)" fill="#231f20"/>
    </g>
    <g id="tner">
      <path id="tner-2" data-name="tner" d="M11.269,4.444a2.849,2.849,0,0,1,2.872-3.037c1.838,0,2.535,1.431,2.535,2.839a4.182,4.182,0,0,1-.059.7H12.955c.047.733.779,1.082,1.6,1.082a4.685,4.685,0,0,0,1.571-.245l.232,1.2a5.381,5.381,0,0,1-2.058.361A2.729,2.729,0,0,1,11.269,4.444ZM1.245,6.853A2.359,2.359,0,0,1,.756,5.165V2.839H0v-1.3H.756V.477L2.489,0V1.535H3.757v1.3H2.489V4.9c0,.687.175,1,.7,1a2.163,2.163,0,0,0,.524-.047L3.722,7.19a3.739,3.739,0,0,1-1.14.151A1.887,1.887,0,0,1,1.245,6.853Zm16.49.372V3.408c0-.837-.012-1.384-.047-1.873H19.2l.069,1.048h.047A1.657,1.657,0,0,1,20.85,1.4a1.753,1.753,0,0,1,.373.035V3.094a2.718,2.718,0,0,0-.477-.046,1.138,1.138,0,0,0-1.21.9,2.15,2.15,0,0,0-.034.4V7.224Zm-9.327,0V4.072c0-.733-.256-1.233-.9-1.233a.971.971,0,0,0-.907.663,1.266,1.266,0,0,0-.058.442V7.224H4.78V3.351c0-.71-.023-1.3-.047-1.815H6.268l.082.791h.035a2.042,2.042,0,0,1,1.756-.919c1.163,0,2.035.779,2.035,2.455V7.224Z" transform="translate(66.402 1.374)"/>
      <path id="tner-3" data-name="tner" d="M11.269,4.444a2.849,2.849,0,0,1,2.872-3.037c1.838,0,2.535,1.431,2.535,2.839a4.182,4.182,0,0,1-.059.7H12.955c.047.733.779,1.082,1.6,1.082a4.685,4.685,0,0,0,1.571-.245l.232,1.2a5.381,5.381,0,0,1-2.058.361A2.729,2.729,0,0,1,11.269,4.444ZM1.245,6.853A2.359,2.359,0,0,1,.756,5.165V2.839H0v-1.3H.756V.477L2.489,0V1.535H3.757v1.3H2.489V4.9c0,.687.175,1,.7,1a2.163,2.163,0,0,0,.524-.047L3.722,7.19a3.739,3.739,0,0,1-1.14.151A1.887,1.887,0,0,1,1.245,6.853Zm16.49.372V3.408c0-.837-.012-1.384-.047-1.873H19.2l.069,1.048h.047A1.657,1.657,0,0,1,20.85,1.4a1.753,1.753,0,0,1,.373.035V3.094a2.718,2.718,0,0,0-.477-.046,1.138,1.138,0,0,0-1.21.9,2.15,2.15,0,0,0-.034.4V7.224Zm-9.327,0V4.072c0-.733-.256-1.233-.9-1.233a.971.971,0,0,0-.907.663,1.266,1.266,0,0,0-.058.442V7.224H4.78V3.351c0-.71-.023-1.3-.047-1.815H6.268l.082.791h.035a2.042,2.042,0,0,1,1.756-.919c1.163,0,2.035.779,2.035,2.455V7.224Z" transform="translate(66.402 1.374)" fill="#231f20"/>
    </g>
  </g>
</svg>
