<svg xmlns="http://www.w3.org/2000/svg" width="213.35" height="58.186" viewBox="0 0 213.35 58.186">
  <g id="verifone" transform="translate(0 -0.008)">
    <g id="Group" transform="translate(79.938 43.211)">
      <path id="Shape" d="M8.3,11.144,7.086,7.736H2.831L1.582,11.144H0L4.255,0H5.8L9.868,11.144Z" transform="translate(0.749 0.307)"/>
      <path id="Shape-2" data-name="Shape" d="M0,11.21V.241H1.232V1.3A3.481,3.481,0,0,1,3.889,0C5.421,0,7.244,1.2,7.244,3.981c0,1.7-.824,3.93-3.5,3.93A3.109,3.109,0,0,1,1.232,6.806v4.4Z" transform="translate(11.949 3.773)"/>
      <path id="Shape-3" data-name="Shape" d="M0,11.21V.241H1.232V1.3A3.481,3.481,0,0,1,3.889,0C5.421,0,7.244,1.2,7.244,3.981c0,1.7-.824,3.93-3.5,3.93A3.109,3.109,0,0,1,1.232,6.806v4.4Z" transform="translate(20.959 3.773)"/>
      <path id="Path" d="M1.266.1V1.454A2.664,2.664,0,0,1,1.965.6,2.851,2.851,0,0,1,3.814,0V1.355a2.464,2.464,0,0,0-.491-.05,1.932,1.932,0,0,0-1.948,1.4A5.186,5.186,0,0,0,1.266,4.08V7.52H0V.083H1.266Z" transform="translate(29.952 3.914)"/>
      <path id="Shape-4" data-name="Shape" d="M0,3.956A3.677,3.677,0,0,1,3.772,0,3.534,3.534,0,0,1,7.311,3.881C7.311,6.548,5.654,7.9,3.656,7.9,1.565,7.9,0,6.515,0,3.956Z" transform="translate(34.615 3.781)"/>
      <path id="Path-2" data-name="Path" d="M3.864,7.437H2.723L0,0H1.316L3.289,5.7,5.254,0h1.3Z" transform="translate(42.858 4.014)"/>
      <path id="Shape-5" data-name="Shape" d="M0,3.881A3.589,3.589,0,0,1,3.605,0C5.238,0,7.019,1.089,7.019,3.981v.208H1.357v.083A2.46,2.46,0,0,0,3.78,6.955,2.015,2.015,0,0,0,5.746,5.218l1.282.175A3.391,3.391,0,0,1,3.656,7.9C1.823,7.9,0,6.814,0,3.881Z" transform="translate(50.319 3.789)"/>
      <path id="Shape-6" data-name="Shape" d="M0,7.4C0,4.513,1.9,3.473,3.414,3.473A3.2,3.2,0,0,1,5.979,4.687V0H7.244V11.144H5.979V10.2a3.1,3.1,0,0,1-2.548,1.18C1.249,11.384,0,9.715,0,7.4Z" transform="translate(58.671 0.299)"/>
      <path id="Shape-7" data-name="Shape" d="M0,11.144V0H5.3A2.948,2.948,0,0,1,8.51,3.141,3.052,3.052,0,0,1,5.254,6.423H1.441v4.721Z" transform="translate(72.66 0.307)"/>
      <path id="Shape-8" data-name="Shape" d="M0,5.726A1.988,1.988,0,0,1,.807,4.113,6.279,6.279,0,0,1,3.83,3.274L4.971,3.2V2.958H4.98c0-.7-.017-2-1.666-2C2.273.956,1.7,1.48,1.7,2.41v.108L.383,2.444A2.538,2.538,0,0,1,3.247,0,3.864,3.864,0,0,1,5.113.44c1.057.6,1.124,1.372,1.124,2.7V5.759c0,.44.016.864.566.864a1.425,1.425,0,0,0,.383-.067V7.612a2.377,2.377,0,0,1-.808.141,1.538,1.538,0,0,1-.791-.192,1.523,1.523,0,0,1-.508-.913A3.277,3.277,0,0,1,2.532,7.862,2.243,2.243,0,0,1,0,5.726Z" transform="translate(81.945 3.789)"/>
      <path id="Path-3" data-name="Path" d="M1.266.1V1.454A2.56,2.56,0,0,1,1.965.6,2.851,2.851,0,0,1,3.814,0V1.355a2.464,2.464,0,0,0-.491-.05,1.932,1.932,0,0,0-1.948,1.4A5.186,5.186,0,0,0,1.266,4.08V7.52H0V.083H1.266Z" transform="translate(90.505 3.914)"/>
      <path id="Path-4" data-name="Path" d="M2.49,8.177c0,.54.158.74.558.74a2.732,2.732,0,0,0,.791-.175V9.781a8.161,8.161,0,0,1-1.2.125c-1.232,0-1.441-.49-1.441-1.338V3.39H0V2.352H1.2V0H2.5V2.352H3.839V3.39H2.5V8.177Z" transform="translate(95.284 1.662)"/>
      <path id="Path-5" data-name="Path" d="M4.938,7.678V2.8a1.535,1.535,0,0,0-1.69-1.612A1.96,1.96,0,0,0,1.266,3.274v4.4H0V.241H1.266V1.33A2.638,2.638,0,0,1,3.606,0,2.676,2.676,0,0,1,5.729,1.022a3.131,3.131,0,0,1,.458,1.945v4.7H4.938Z" transform="translate(100.763 3.773)"/>
      <path id="Shape-9" data-name="Shape" d="M0,3.881A3.589,3.589,0,0,1,3.605,0C5.238,0,7.019,1.089,7.019,3.981v.208H1.357v.083A2.46,2.46,0,0,0,3.78,6.955,2.015,2.015,0,0,0,5.746,5.218l1.282.175A3.391,3.391,0,0,1,3.656,7.9C1.823,7.9,0,6.814,0,3.881Z" transform="translate(108.724 3.789)"/>
      <path id="Path-6" data-name="Path" d="M1.266.1V1.454A2.56,2.56,0,0,1,1.965.6,2.851,2.851,0,0,1,3.814,0V1.355a2.464,2.464,0,0,0-.491-.05,1.932,1.932,0,0,0-1.948,1.4A5.186,5.186,0,0,0,1.266,4.08V7.52H0V.083H1.266Z" transform="translate(117.492 3.914)"/>
    </g>
    <g id="Group-2" data-name="Group">
      <path id="Shape-10" data-name="Shape" d="M174.131,26.783c0-6.5,4.33-15.34,14.889-15.34,6.961,0,12.173,3.449,12.173,11.343a24.725,24.725,0,0,1-.617,4.9h-18.51c-.033,1.895,1.574,5.177,8,5.177a20.71,20.71,0,0,0,6.637-1.272v.69c0,3.622-3.522,6.4-9.751,6.4C178.344,38.674,174.131,33.331,174.131,26.783ZM93.069,34.8a11.856,11.856,0,0,1,.3-2.4c1.174-5.9,2.8-14.059,2.814-14.06H92.045l1.257-6.3h4.139l.657-3.29C99.173,3.349,102.8,0,108.332,0a26.589,26.589,0,0,1,6.329.7l-1.2,5.991a13.766,13.766,0,0,0-3.314-.4c-2.381,0-3.756,1.279-4.33,4.188l-.308,1.554h6.353l-1.257,6.3h-6.353l-3.93,19.744a8.257,8.257,0,0,1-3.131.6C95.068,38.674,93.069,37.785,93.069,34.8Zm-15.9.024a10.263,10.263,0,0,1,.208-1.936c1.633-8.135,4.155-20.857,4.155-20.857H89.7L84.517,38.075a8.9,8.9,0,0,1-3.164.6C79.172,38.674,77.173,37.826,77.173,34.826ZM26.521,26.783c0-6.5,4.33-15.34,14.888-15.34,6.962,0,12.174,3.449,12.174,11.343a24.007,24.007,0,0,1-.625,4.9H34.448c-.033,1.895,1.573,5.177,8,5.177a20.71,20.71,0,0,0,6.637-1.272c.008.2.008.557.008.69,0,3.622-3.523,6.4-9.751,6.4C30.734,38.674,26.521,33.331,26.521,26.783Zm84.509-.009c0-9.14,6.3-15.34,16.037-15.34,8.444,0,12.932,5.094,12.932,11.642,0,9.814-6.728,15.589-16.038,15.589C115.21,38.666,111.03,33.439,111.03,26.774ZM55.565,34.844a10.1,10.1,0,0,1,.208-1.961c.833-4.081,1.649-8.285,2.481-12.49a61.4,61.4,0,0,0,1.224-8.359h8.077l-.317,4.5h.092a7.673,7.673,0,0,1,7.236-5.1,10.843,10.843,0,0,1,3.6.515L76.782,18.9a18.922,18.922,0,0,0-4.463-.565c-4.563,0-6.137,3.05-7,7.671L62.909,38.075a8.583,8.583,0,0,1-3.147.59C56.623,38.666,55.565,36.987,55.565,34.844Zm86.749-.133a31.391,31.391,0,0,1,.758-4.612c.349-1.8,2.215-11.26,2.215-11.26a64.844,64.844,0,0,0,.916-6.806h8.077l-.317,4.5h.092a8.939,8.939,0,0,1,8.61-5.1c5.562,0,8.519,3.5,8.535,8.518a29.415,29.415,0,0,1-.715,5.942l-2.424,12.157a8.823,8.823,0,0,1-3.139.6c-2.765,0-4.213-1.28-4.213-3.847a16.977,16.977,0,0,1,.433-3.092l1.165-5.809a22.8,22.8,0,0,0,.6-4.163,3.585,3.585,0,0,0-3.856-3.441c-3.23,0-5.945,2.452-6.694,6.2l-2.7,13.562a8.847,8.847,0,0,1-3.189.6C143.6,38.658,142.314,37.237,142.314,34.71ZM0,31.187V3.166H8.219V29.059c0,3.9,1.94,5.884,5.063,5.884a2.254,2.254,0,0,0,.566-.059c-1.365,2.061-3.139,3.756-7.211,3.756C2.332,38.641,0,35.658,0,31.187Zm82.386-23.4,1.316-6.6H91.87l-1.316,6.6Z" transform="translate(0 0.008)"/>
      <g id="Group-3" data-name="Group" transform="translate(9.992 2.493)">
        <path id="Path-7" data-name="Path" d="M0,23.218v2.717C0,28.561,1.424,29.5,2.973,29.5c1.59,0,2.44-1.072,3.214-2.294C7.5,25.171,23.465,0,23.465,0H14.922L0,23.218Z" transform="translate(0.516 0.681)" fill="#00aeef"/>
        <path id="Shape-11" data-name="Shape" d="M.024,4.022A4.508,4.508,0,0,1,4.5,0,3.543,3.543,0,0,1,8.085,4.022,4.456,4.456,0,0,1,3.613,8.044,3.542,3.542,0,0,1,.024,4.022Z" transform="translate(195.249 8.975)"/>
      </g>
    </g>
  </g>
</svg>
